<?xml version="1.0" encoding="UTF-8" standalone="no"?>

<svg
   xmlns:svg="http://www.w3.org/2000/svg"
   xmlns="http://www.w3.org/2000/svg"
   xml:space="preserve"
   width="100%"
   height="100%"
   version="1.1"
   shape-rendering="geometricPrecision"
   text-rendering="geometricPrecision"
   image-rendering="optimizeQuality"
   fill-rule="evenodd"
   clip-rule="evenodd"
   viewBox="0 0 785 1280">
 <g>
  <metadata
   id="eth" />
  <g>
   <g>
    <polygon
   fill="#343434"
   fill-rule="nonzero"
   points="392,0 384,29 384,875 392,882 784,650 "
   style="fill:#66ff00" />
    <polygon
   fill="#8C8C8C"
   fill-rule="nonzero"
   points="392,0 -0,650 392,882 392,472 " />
    <polygon
   fill="#3C3C3B"
   fill-rule="nonzero"
   points="392,956 387,962 387,1263 392,1277 784,724 "
   style="fill:#66ff00" />
    <polygon
   fill="#8C8C8C"
   fill-rule="nonzero"
   points="392,1277 392,956 -0,725 " />
    <polygon
   fill="#141414"
   fill-rule="nonzero"
   points="392,882 784,650 392,472 "
   style="fill:#338000" />
    <polygon
   fill="#393939"
   fill-rule="nonzero"
   points="0,650 392,882 392,472 " />
   </g>
  </g>
 </g>
<ellipse
   cx="175"
   cy="550"
   rx="30"
   ry="42"
   style="fill:#ff2a2a;stroke-width:1;opacity:0.75" /><ellipse
   cx="10"
   cy="1080"
   rx="25"
   ry="40"
   style="fill:#ff2a2a;stroke-width:1;opacity:0.75"
   transform="matrix(0.942,-0.335,0.27,0.963,0,0)" /><ellipse
   cx="320"
   cy="625"
   rx="30"
   ry="45"
   style="fill:#ff2a2a;opacity:0.75" /><ellipse
   cx="300"
   cy="375"
   rx="30"
   ry="45"
   style="fill:#ff2a2a;opacity:0.75" /></svg>
